<mxfile host="app.diagrams.net" modified="2024-05-19T07:59:49.778Z" agent="Mozilla/5.0 (Windows NT 10.0; Win64; x64) AppleWebKit/537.36 (KHTML, like Gecko) Chrome/125.0.0.0 Safari/537.36" version="24.4.4" etag="k8FlEV9Hup2Gbsa6i5p0" type="github">
  <diagram name="Page-1" id="2L2S488JmHTBBk5yzKj-">
    <mxGraphModel>
      <root>
        <mxCell id="0" />
        <mxCell id="1" parent="0" />
      </root>
    </mxGraphModel>
  </diagram>
</mxfile>
